<svg xmlns="http://www.w3.org/2000/svg" viewBox="0 0 1920 1080" width="1920" height="1080">
  <defs>
    <linearGradient id="bgGradient" x1="0%" y1="0%" x2="100%" y2="100%">
      <stop offset="0%" style="stop-color:#1a365d;stop-opacity:1" />
      <stop offset="50%" style="stop-color:#2d3748;stop-opacity:1" />
      <stop offset="100%" style="stop-color:#1a202c;stop-opacity:1" />
    </linearGradient>
    <pattern id="grid" width="40" height="40" patternUnits="userSpaceOnUse">
      <path d="M 40 0 L 0 0 0 40" fill="none" stroke="rgba(255,255,255,0.1)" stroke-width="1"/>
    </pattern>
  </defs>
  
  <!-- Background -->
  <rect width="1920" height="1080" fill="url(#bgGradient)"/>
  
  <!-- Grid pattern -->
  <rect width="1920" height="1080" fill="url(#grid)"/>
  
  <!-- Industrial elements -->
  <circle cx="300" cy="200" r="80" fill="rgba(255,107,53,0.2)"/>
  <circle cx="1600" cy="300" r="60" fill="rgba(49,130,206,0.2)"/>
  <circle cx="400" cy="800" r="100" fill="rgba(255,107,53,0.15)"/>
  <circle cx="1500" cy="700" r="70" fill="rgba(49,130,206,0.15)"/>
  
  <!-- Oil drop shapes -->
  <path d="M500 400 C450 400, 400 450, 400 500 C400 550, 450 600, 500 650 C550 700, 600 750, 650 700 C700 650, 750 600, 750 500 C750 400, 700 350, 600 400 C550 400, 500 400, 500 400 Z" fill="rgba(255,107,53,0.3)"/>
  <path d="M1200 600 C1150 600, 1100 650, 1100 700 C1100 750, 1150 800, 1200 850 C1250 900, 1300 950, 1350 900 C1400 850, 1450 800, 1450 700 C1450 600, 1400 550, 1300 600 C1250 600, 1200 600, 1200 600 Z" fill="rgba(49,130,206,0.3)"/>
  
  <!-- Chemical structures -->
  <g fill="rgba(255,255,255,0.1)" stroke="rgba(255,255,255,0.2)" stroke-width="2">
    <circle cx="200" cy="600" r="20"/>
    <circle cx="250" cy="600" r="20"/>
    <circle cx="300" cy="600" r="20"/>
    <line x1="220" y1="600" x2="230" y2="600"/>
    <line x1="270" y1="600" x2="280" y2="600"/>
    
    <circle cx="1600" cy="500" r="15"/>
    <circle cx="1650" cy="500" r="15"/>
    <circle cx="1700" cy="500" r="15"/>
    <line x1="1615" y1="500" x2="1635" y2="500"/>
    <line x1="1665" y1="500" x2="1685" y2="500"/>
  </g>
  
  <!-- Overlay gradient for text readability -->
  <rect width="1920" height="1080" fill="url(#bgGradient)" opacity="0.3"/>
</svg>
